<?xml version="1.0" encoding="iso-8859-1"?>
<!-- Generator: Adobe Illustrator 19.0.0, SVG Export Plug-In . SVG Version: 6.00 Build 0)  -->
<svg version="1.1" id="Layer_1" xmlns="http://www.w3.org/2000/svg" xmlns:xlink="http://www.w3.org/1999/xlink" x="0px" y="0px"
	 viewBox="0 0 512 512" style="enable-background:new 0 0 512 512;" xml:space="preserve">

	<g>
		<path d="M438.649,78.916c-6.52-6.52-17.092-6.52-23.611,0c-6.52,6.52-6.52,17.092,0,23.611
			c40.995,40.994,63.57,95.499,63.57,153.473s-22.576,112.479-63.57,153.473c-6.52,6.52-6.52,17.091,0,23.611
			c3.259,3.261,7.532,4.891,11.805,4.891c4.272,0,8.546-1.631,11.806-4.891C485.95,385.784,512,322.894,512,256
			S485.95,126.217,438.649,78.916z"/>
	</g>

	<g>
		<path d="M391.427,126.139c-6.519-6.519-17.091-6.519-23.611,0c-6.52,6.52-6.52,17.091,0,23.611
			c58.586,58.586,58.586,153.914,0,212.501c-6.52,6.52-6.52,17.091,0,23.611c3.259,3.26,7.532,4.89,11.805,4.89
			c4.273,0,8.546-1.63,11.806-4.89C463.033,314.256,463.033,197.744,391.427,126.139z"/>
	</g>

	<g>
		<path d="M344.205,173.361c-6.52-6.52-17.092-6.52-23.611,0c-6.52,6.52-6.52,17.091,0,23.611
			c32.548,32.549,32.548,85.507,0,118.056c-6.52,6.52-6.52,17.091,0,23.611c3.259,3.261,7.532,4.891,11.805,4.891
			c4.273,0,8.545-1.631,11.806-4.891C389.772,293.071,389.772,218.928,344.205,173.361z"/>
	</g>

	<g>
		<path d="M259.621,81.948c-11.499-5.661-24.952-4.324-35.11,3.491l-112.093,86.225v168.843l112.093,86.225
			c5.986,4.605,13.114,6.961,20.315,6.96c5.018,0,10.072-1.145,14.795-3.47c11.498-5.662,18.64-17.14,18.64-29.956V111.904
			C278.261,99.088,271.118,87.61,259.621,81.948z"/>
	</g>

	<g>
		<path d="M50.087,173.087C22.469,173.087,0,195.556,0,223.174v66.783c0,27.618,22.469,50.087,50.087,50.087h28.939V173.087H50.087z
			"/>
	</g>


</svg>
